<svg xmlns="http://www.w3.org/2000/svg" version="1.1" xmlns:xlink="http://www.w3.org/1999/xlink" xmlns:svgjs="http://svgjs.dev/svgjs" width="1500" height="1500" viewBox="0 0 1500 1500"><rect width="1500" height="1500" fill="#ffebe6"></rect><g transform="matrix(0.6666666666666666,0,0,0.6666666666666666,249.39393939393938,438.5856950067477)"><svg viewBox="0 0 396 247" data-background-color="#ffebe6" preserveAspectRatio="xMidYMid meet" height="935" width="1500" xmlns="http://www.w3.org/2000/svg" xmlns:xlink="http://www.w3.org/1999/xlink"><g id="tight-bounds" transform="matrix(1,0,0,1,0.2400000000000091,-0.09999999999999432)"><svg viewBox="0 0 395.52 247.2" height="247.2" width="395.52"><g><svg></svg></g><g><svg viewBox="0 0 395.52 247.2" height="247.2" width="395.52"><g transform="matrix(1,0,0,1,75.54432,76.7272286242616)"><svg viewBox="0 0 244.43135999999998 93.74554275147679" height="93.74554275147679" width="244.43135999999998"><g><svg viewBox="0 0 244.43135999999998 93.74554275147679" height="93.74554275147679" width="244.43135999999998"><g><svg viewBox="0 0 244.43135999999998 93.74554275147679" height="93.74554275147679" width="244.43135999999998"><g><svg viewBox="0 0 244.43135999999998 93.74554275147679" height="93.74554275147679" width="244.43135999999998"><g id="textblocktransform"><svg viewBox="0 0 244.43135999999998 93.74554275147679" height="93.74554275147679" width="244.43135999999998" id="textblock"><g><svg viewBox="0 0 244.43135999999998 63.17031955090891" height="63.17031955090891" width="244.43135999999998"><g transform="matrix(1,0,0,1,0,0)"><svg width="244.43135999999998" viewBox="3.85 -35.9 142.26888183593752 36.15" height="63.17031955090891" data-palette-color="#ff3700"><g transform="matrix(1,0,0,1,0,0)"><g><svg width="16.052587890625" viewBox="1.78 -36.36 74.21 36.36" height="7.865" data-palette-color="#ff3700" id="scriptelement" x="130.0662939453125" y="-7.865"><path d="M12.91-30.02L1.78-30.02 1.78-36.36 31.64-36.36 31.64-30.02 20.51-30.02 20.51 0 12.91 0 12.91-30.02ZM36.57 0L36.57-36.36 46.06-36.36 56.07-11.93 56.5-11.93 66.51-36.36 75.99-36.36 75.99 0 68.53 0 68.53-23.67 68.23-23.67 58.82-0.18 53.74-0.18 44.33-23.76 44.03-23.76 44.03 0 36.57 0Z" opacity="1" transform="matrix(1,0,0,1,0,0)" fill="#ff3700" class="undefined-123" data-fill-palette-color="primary" id="yy-123"></path></svg></g></g><path d="M7.95-30.1L7.95-3.55 14-3.55Q20.25-3.55 23.45-7.43 26.65-11.3 26.65-17.1L26.65-17.1Q26.65-22.6 23.08-26.35 19.5-30.1 13.8-30.1L13.8-30.1 7.95-30.1ZM3.85 0L3.85-33.7 13.85-33.7Q21.3-33.7 26.08-29.08 30.85-24.45 30.85-17.1L30.85-17.1Q30.85-9.8 26.43-4.9 22 0 14.05 0L14.05 0 3.85 0ZM38.8-22.2L35.25-22.2 35.25-34.05 38.8-34.05 38.8-22.2ZM47.2-14.3L60.8-14.3 60.8-15.3Q60.8-18.45 59.1-20.33 57.4-22.2 54.4-22.2L54.4-22.2Q51.55-22.2 49.55-20.15 47.55-18.1 47.2-14.3L47.2-14.3ZM63.15-5L63.15-5 63.15-1.3Q60.2 0.25 55.95 0.25L55.95 0.25Q50.2 0.25 46.67-3.28 43.15-6.8 43.15-12.6L43.15-12.6Q43.15-18.65 46.3-22.15 49.45-25.65 54.4-25.65L54.4-25.65Q59.15-25.65 61.95-22.6 64.75-19.55 64.75-13.95L64.75-13.95Q64.75-12.35 64.5-11L64.5-11 47.2-11Q47.65-7.25 50.05-5.25 52.45-3.25 56.35-3.25L56.35-3.25Q60.6-3.25 63.15-5ZM82.84-35.35L82.84-35.35 82.84-31.75Q81.64-32.15 80.54-32.15L80.54-32.15Q78.94-32.15 77.92-31.05 76.89-29.95 76.89-27.65L76.89-27.65 76.89-25.35 82.49-25.35 82.49-22.15 76.89-22.15 76.89 0 72.94 0 72.94-22.15 68.59-22.15 68.59-25.35 72.94-25.35 72.94-27.7Q72.94-31.4 74.92-33.55 76.89-35.7 80.39-35.7L80.39-35.7Q81.59-35.7 82.84-35.35ZM91.34 0L87.39 0 87.39-25.35 91.34-25.35 91.34 0ZM87.52-31.48Q86.79-32.2 86.79-33.3 86.79-34.4 87.52-35.15 88.24-35.9 89.34-35.9 90.44-35.9 91.19-35.15 91.94-34.4 91.94-33.3 91.94-32.2 91.19-31.48 90.44-30.75 89.34-30.75 88.24-30.75 87.52-31.48ZM111.29-22.15L104.29-22.15 104.29-7.3Q104.29-3.25 108.09-3.25L108.09-3.25Q110.04-3.25 111.54-4.4L111.54-4.4 111.54-0.65Q109.89 0.25 107.84 0.25L107.84 0.25Q100.34 0.25 100.34-7.4L100.34-7.4 100.34-22.15 96.29-22.15 96.29-25.35 100.34-25.35 100.34-31.65 104.29-31.65 104.29-25.35 111.29-25.35 111.29-22.15ZM121.44 0L117.49 0 117.49-25.35 121.44-25.35 121.44 0ZM117.61-31.48Q116.89-32.2 116.89-33.3 116.89-34.4 117.61-35.15 118.34-35.9 119.44-35.9 120.54-35.9 121.29-35.15 122.04-34.4 122.04-33.3 122.04-32.2 121.29-31.48 120.54-30.75 119.44-30.75 118.34-30.75 117.61-31.48Z" opacity="1" transform="matrix(1,0,0,1,0,0)" fill="#ff3700" class="wordmark-text-0" data-fill-palette-color="primary" id="text-0"></path></svg></g></svg></g><g transform="matrix(1,0,0,1,0,78.08331590920928)"><svg viewBox="0 0 202.35471656971652 15.662226842267515" height="15.662226842267515" width="202.35471656971652"><g transform="matrix(1,0,0,1,0,0)"><svg width="202.35471656971652" viewBox="1 -37.8 645.29 49.949999999999996" height="15.662226842267515" data-palette-color="#111111"><path d="M23.45 0L10.5 0 2.5-27.45 1-32.4 1-35.4 10.5-35.4 16.75-9.6 17.75-9.6 22.5-35.4 35.65-35.4 39.55-15.95 40.35-9.6 41.35-9.6 47.55-35.4 56.95-35.4 56.95-32.4 55.45-27.45 47.55 0 34.6 0 29.45-26.1 28.4-26.1 27.55-20.05 23.45 0ZM69.95 0L60.95 0 60.95-27.4 59.95-32.4 60.95-35.4 69.95-35.4 69.95-27.3 69.45-21.75 69.95-21.5Q70.55-22.4 72.17-23.28 73.8-24.15 76.45-24.15L76.45-24.15Q80.95-24.15 83.2-21.6 85.45-19.05 85.45-14.45L85.45-14.45 85.45-7.95 86.5-3.05 85.45 0 76.45 0 76.45-13.15Q76.45-15.05 75.62-16.07 74.8-17.1 73.05-17.1L73.05-17.1 69.95-15.65 69.95 0ZM102.8 0.5L102.8 0.5Q98.95 0.5 95.95-0.65 92.95-1.8 91.25-4.5 89.55-7.2 89.55-11.8L89.55-11.8Q89.55-15.1 90.67-17.45 91.8-19.8 93.7-21.28 95.6-22.75 97.95-23.43 100.3-24.1 102.8-24.1L102.8-24.1Q107.1-24.1 109.42-23.25 111.75-22.4 112.5-21.9L112.5-21.9 115-13.95 114-10.85 98.5-10.85Q98.85-9 100.35-7.75 101.85-6.5 105.3-6.5L105.3-6.5Q108-6.5 109.95-7.1 111.9-7.7 113-8.15L113-8.15 113-1.45Q111.5-0.65 108.67-0.08 105.85 0.5 102.8 0.5ZM98.55-14.05L98.55-14.05 105.45-15.05 105-17.2Q104.65-17.4 103.97-17.5 103.3-17.6 102.8-17.6L102.8-17.6Q101.4-17.6 100.47-17 99.55-16.4 99.07-15.58 98.6-14.75 98.55-14.05ZM128.14 0L119.24 0 119.24-15.65 118.19-20.65 119.24-23.65 126.04-23.65 127.04-22.5Q127.04-22.5 127.74-22.93 128.44-23.35 129.72-23.75 130.99-24.15 132.69-24.15L132.69-24.15Q133.69-24.15 134.69-24 135.69-23.85 136.24-23.6L136.24-23.6 139.49-20.85 136.24-14.45 129.64-17.2 128.14-16.7 128.14 0ZM152.49 0.5L152.49 0.5Q148.64 0.5 145.64-0.65 142.64-1.8 140.94-4.5 139.24-7.2 139.24-11.8L139.24-11.8Q139.24-15.1 140.37-17.45 141.49-19.8 143.39-21.28 145.29-22.75 147.64-23.43 149.99-24.1 152.49-24.1L152.49-24.1Q156.79-24.1 159.12-23.25 161.44-22.4 162.19-21.9L162.19-21.9 164.69-13.95 163.69-10.85 148.19-10.85Q148.54-9 150.04-7.75 151.54-6.5 154.99-6.5L154.99-6.5Q157.69-6.5 159.64-7.1 161.59-7.7 162.69-8.15L162.69-8.15 162.69-1.45Q161.19-0.65 158.37-0.08 155.54 0.5 152.49 0.5ZM148.24-14.05L148.24-14.05 155.14-15.05 154.69-17.2Q154.34-17.4 153.67-17.5 152.99-17.6 152.49-17.6L152.49-17.6Q151.09-17.6 150.17-17 149.24-16.4 148.77-15.58 148.29-14.75 148.24-14.05ZM190.94 0L183.89 0 182.89-6.3Q181.49-8.05 180.69-10.8 179.89-13.55 179.89-17.65L179.89-17.65Q179.89-23.2 181.31-26.75 182.74-30.3 185.16-32.3 187.59-34.3 190.61-35.08 193.64-35.85 196.84-35.85L196.84-35.85Q200.04-35.85 203.06-35.05 206.09-34.25 208.51-32.25 210.94-30.25 212.36-26.7 213.79-23.15 213.79-17.65L213.79-17.65Q213.79-13.35 212.89-10.5 211.99-7.65 210.39-5.9L210.39-5.9Q209.59-4.95 208.59-4.3 207.59-3.65 206.44-3.2L206.44-3.2 206.49-2.95 210.39-1.95 217.24 1.1 212.74 8.7Q212.74 8.7 211.49 8.08 210.24 7.45 208.29 6.5 206.34 5.55 204.26 4.53 202.19 3.5 200.51 2.7 198.84 1.9 198.14 1.55L198.14 1.55Q196.39 0.7 194.89 0.35 193.39 0 190.94 0L190.94 0ZM192.84-7.95L192.84-7.95 196.79-7.95Q200.79-7.95 202.56-10.43 204.34-12.9 204.34-17.65L204.34-17.65Q204.34-22.95 202.44-25.15 200.54-27.35 196.84-27.35L196.84-27.35Q193.19-27.35 191.29-25.1 189.39-22.85 189.39-17.65L189.39-17.65Q189.39-15.3 189.91-13.3 190.44-11.3 191.24-9.9 192.04-8.5 192.84-7.95ZM225.23 0.5L225.23 0.5Q222.23 0.5 220.61-0.65 218.98-1.8 218.36-3.98 217.73-6.15 217.73-9.2L217.73-9.2 217.73-23.65 226.73-23.65 226.73-10.5Q226.73-8.65 227.46-7.6 228.18-6.55 229.63-6.55L229.63-6.55Q230.98-6.55 232.11-7.7 233.23-8.85 233.23-11.05L233.23-11.05 233.23-23.65 242.23-23.65 242.23-8.05 243.28-3.05 242.23 0 233.78 0 233.78-2.45 233.28-2.7Q232.63-2.05 231.41-1.3 230.18-0.55 228.61-0.03 227.03 0.5 225.23 0.5ZM254.58 0.5L254.58 0.5Q252.43 0.5 250.61-0.13 248.78-0.75 247.68-2.3 246.58-3.85 246.58-6.6L246.58-6.6Q246.58-9.1 247.83-10.75 249.08-12.4 251.23-13.2 253.38-14 256.08-14L256.08-14Q258.68-14 259.98-13.43 261.28-12.85 262.23-12.25L262.23-12.25 262.58-12.55Q262.58-14.05 262.33-15.05 262.08-16.05 261.18-16.57 260.28-17.1 258.38-17.1L258.38-17.1Q256.53-17.1 254.46-16.78 252.38-16.45 250.66-15.98 248.93-15.5 248.08-15.05L248.08-15.05 248.08-22.55Q249.63-23.1 252.51-23.58 255.38-24.05 259.58-24.05L259.58-24.05Q264.08-24.05 266.71-22.93 269.33-21.8 270.48-19.68 271.63-17.55 271.63-14.6L271.63-14.6 271.63-7.95 272.63-2.9 271.63 0.05 263.08 0.05 263.08-2.4 262.58-2.65Q262.18-2.25 261.18-1.5 260.18-0.75 258.53-0.13 256.88 0.5 254.58 0.5ZM258.83-6.05L258.83-6.05Q260.18-6.05 261.16-6.3 262.13-6.55 262.58-6.75L262.58-6.75 262.58-7.7Q262.58-8.35 261.66-8.95 260.73-9.55 258.78-9.55L258.78-9.55Q256.08-9.55 256.08-7.65L256.08-7.65Q256.08-6.85 256.68-6.45 257.28-6.05 258.83-6.05ZM286.68 0L277.68 0 277.63-27.4 276.63-32.4 277.68-35.4 286.68-35.4 286.68 0ZM303.53-31.45L297.18-25.05 290.83-31.45 297.18-37.8 303.53-31.45ZM301.68 0L292.68 0 292.68-16.55 291.63-20.55 292.63-23.6 301.68-23.6 301.68 0ZM315.92 0.5L315.92 0.5Q312.52 0.5 310.47-1.5 308.42-3.5 308.42-6.55L308.42-6.55 308.42-17.45 304.77-17.45 304.77-22.2 307.92-24.65 311.47-30.85 317.37-30.85 317.37-23.6 324.37-23.6 324.37-17.1 317.37-17.1 317.37-6.4 324.37-6.45 324.37-1Q324.37-1 323.2-0.63 322.02-0.25 320.12 0.13 318.22 0.5 315.92 0.5ZM330.92 12.15L330.92 12.15 323.87 9.65 325.87 2.2 332.87 4.2Q335.02 4.2 336 3.08 336.97 1.95 337.47-0.05L337.47-0.05 332.32-0.05 326.82-17.15 325.87-23.65 335.37-23.65 338.12-7.15 339.12-7.15 341.87-23.65 351.37-23.65Q351.37-23.65 351.05-22.08 350.72-20.5 350.15-17.9 349.57-15.3 348.8-12.18 348.02-9.05 347.17-5.88 346.32-2.7 345.42-0.05L345.42-0.05Q344.07 4.1 342.2 6.8 340.32 9.5 337.62 10.83 334.92 12.15 330.92 12.15ZM366.87-15.05L365.87-20.55 367.42-23.6 374.87-23.6 374.87-21.45 375.32-21.15Q375.87-21.65 376.84-22.33 377.82-23 379.22-23.55 380.62-24.1 382.37-24.1L382.37-24.1Q387.57-24.1 389.82-20.65L389.82-20.65Q390.72-21.9 392.54-23.03 394.37-24.15 397.62-24.15L397.62-24.15Q402.12-24.15 404.37-21.6 406.62-19.05 406.62-14.45L406.62-14.45 406.62-8.05 407.67-3.05 406.62 0 397.62 0 397.62-13.15Q397.62-15.05 396.79-16.07 395.97-17.1 394.22-17.1L394.22-17.1Q393.07-17.1 392.22-16.25 391.37-15.4 391.37-14.1L391.37-14.1 391.37 0 382.37 0 382.37-13.1Q382.37-15 381.54-16.03 380.72-17.05 378.97-17.05L378.97-17.05 375.87-16.1 375.87 0 366.87 0 366.87-15.05ZM424.16 0.5L424.16 0.5Q420.31 0.5 417.31-0.65 414.31-1.8 412.61-4.5 410.91-7.2 410.91-11.8L410.91-11.8Q410.91-15.1 412.04-17.45 413.16-19.8 415.06-21.28 416.96-22.75 419.31-23.43 421.66-24.1 424.16-24.1L424.16-24.1Q428.46-24.1 430.79-23.25 433.11-22.4 433.86-21.9L433.86-21.9 436.36-13.95 435.36-10.85 419.86-10.85Q420.21-9 421.71-7.75 423.21-6.5 426.66-6.5L426.66-6.5Q429.36-6.5 431.31-7.1 433.26-7.7 434.36-8.15L434.36-8.15 434.36-1.45Q432.86-0.65 430.04-0.08 427.21 0.5 424.16 0.5ZM419.91-14.05L419.91-14.05 426.81-15.05 426.36-17.2Q426.01-17.4 425.34-17.5 424.66-17.6 424.16-17.6L424.16-17.6Q422.76-17.6 421.84-17 420.91-16.4 420.44-15.58 419.96-14.75 419.91-14.05ZM452.06 0.5L452.06 0.5Q448.21 0.5 445.21-0.65 442.21-1.8 440.51-4.5 438.81-7.2 438.81-11.8L438.81-11.8Q438.81-15.1 439.94-17.45 441.06-19.8 442.96-21.28 444.86-22.75 447.21-23.43 449.56-24.1 452.06-24.1L452.06-24.1Q456.36-24.1 458.69-23.25 461.01-22.4 461.76-21.9L461.76-21.9 464.26-13.95 463.26-10.85 447.76-10.85Q448.11-9 449.61-7.75 451.11-6.5 454.56-6.5L454.56-6.5Q457.26-6.5 459.21-7.1 461.16-7.7 462.26-8.15L462.26-8.15 462.26-1.45Q460.76-0.65 457.94-0.08 455.11 0.5 452.06 0.5ZM447.81-14.05L447.81-14.05 454.71-15.05 454.26-17.2Q453.91-17.4 453.24-17.5 452.56-17.6 452.06-17.6L452.06-17.6Q450.66-17.6 449.74-17 448.81-16.4 448.34-15.58 447.86-14.75 447.81-14.05ZM477.11 0.5L477.11 0.5Q473.71 0.5 471.66-1.5 469.61-3.5 469.61-6.55L469.61-6.55 469.61-17.45 465.96-17.45 465.96-22.2 469.11-24.65 472.66-30.85 478.56-30.85 478.56-23.6 485.56-23.6 485.56-17.1 478.56-17.1 478.56-6.4 485.56-6.45 485.56-1Q485.56-1 484.38-0.63 483.21-0.25 481.31 0.13 479.41 0.5 477.11 0.5ZM499.81 0.5L499.81 0.5Q496.16 0.5 493.36-0.25 490.56-1 489.01-1.8L489.01-1.8 489.01-8.75Q491.06-7.85 493.23-7.35 495.41-6.85 497.16-6.68 498.91-6.5 499.66-6.5L499.66-6.5Q500.51-6.5 500.86-6.78 501.21-7.05 501.21-7.45L501.21-7.45Q501.21-8 500.31-8.38 499.41-8.75 496.91-9.35L496.91-9.35Q494.86-9.85 492.93-10.63 491.01-11.4 489.78-12.8 488.56-14.2 488.56-16.55L488.56-16.55Q488.56-19.45 489.91-21.1 491.26-22.75 493.76-23.43 496.26-24.1 499.61-24.1L499.61-24.1Q501.51-24.1 503.16-23.9 504.81-23.7 505.51-23.6L505.51-23.6 510.16-20.6 507.91-15.25 499.16-17.15Q497.56-17.15 497.56-16.1L497.56-16.1Q497.56-15 499.86-14.45L499.86-14.45Q501.66-14.05 503.56-13.58 505.46-13.1 507.03-12.35 508.61-11.6 509.58-10.35 510.56-9.1 510.56-7.05L510.56-7.05Q510.56-3.25 507.83-1.38 505.11 0.5 499.81 0.5ZM539.55 0.5L539.55 0.5Q536.8 0.5 534.35-0.03 531.9-0.55 530.1-1.3 528.3-2.05 527.45-2.7L527.45-2.7 527.45-11.65Q529.85-10.3 533.5-9.13 537.15-7.95 541.6-7.95L541.6-7.95Q543.4-7.95 544.27-8.43 545.15-8.9 545.15-10.1L545.15-10.1Q545.15-11.4 543.17-12.28 541.2-13.15 536.95-14.45L536.95-14.45Q533.65-15.5 531.32-16.78 529-18.05 527.77-19.98 526.55-21.9 526.55-24.9L526.55-24.9Q526.55-28 528.15-30.5 529.75-33 533.15-34.45 536.55-35.9 541.85-35.9L541.85-35.9Q543.45-35.9 545.27-35.77 547.1-35.65 548.2-35.45L548.2-35.45 553.85-31.3 551.9-25.2 540.05-28.45Q538-28.45 537.02-27.6 536.05-26.75 536.05-25.55L536.05-25.55Q536.05-24.1 537.7-23.25 539.35-22.4 542.45-21.55L542.45-21.55Q547.35-20.2 550.05-18.55 552.75-16.9 553.85-14.83 554.95-12.75 554.95-10.15L554.95-10.15Q554.95-5.35 551.1-2.43 547.25 0.5 539.55 0.5ZM568.6 0.5L568.6 0.5Q565.2 0.5 563.15-1.5 561.1-3.5 561.1-6.55L561.1-6.55 561.1-17.45 557.45-17.45 557.45-22.2 560.6-24.65 564.15-30.85 570.05-30.85 570.05-23.6 577.05-23.6 577.05-17.1 570.05-17.1 570.05-6.4 577.05-6.45 577.05-1Q577.05-1 575.87-0.63 574.7-0.25 572.8 0.13 570.9 0.5 568.6 0.5ZM583.59 12.15L583.59 12.15 576.54 9.65 578.54 2.2 585.54 4.2Q587.69 4.2 588.67 3.08 589.64 1.95 590.14-0.05L590.14-0.05 584.99-0.05 579.49-17.15 578.54-23.65 588.04-23.65 590.79-7.15 591.79-7.15 594.54-23.65 604.04-23.65Q604.04-23.65 603.72-22.08 603.39-20.5 602.82-17.9 602.24-15.3 601.47-12.18 600.69-9.05 599.84-5.88 598.99-2.7 598.09-0.05L598.09-0.05Q596.74 4.1 594.87 6.8 592.99 9.5 590.29 10.83 587.59 12.15 583.59 12.15ZM616.59 0L607.59 0 607.54-27.4 606.54-32.4 607.59-35.4 616.59-35.4 616.59 0ZM634.09 0.5L634.09 0.5Q630.24 0.5 627.24-0.65 624.24-1.8 622.54-4.5 620.84-7.2 620.84-11.8L620.84-11.8Q620.84-15.1 621.96-17.45 623.09-19.8 624.99-21.28 626.89-22.75 629.24-23.43 631.59-24.1 634.09-24.1L634.09-24.1Q638.39-24.1 640.71-23.25 643.04-22.4 643.79-21.9L643.79-21.9 646.29-13.95 645.29-10.85 629.79-10.85Q630.14-9 631.64-7.75 633.14-6.5 636.59-6.5L636.59-6.5Q639.29-6.5 641.24-7.1 643.19-7.7 644.29-8.15L644.29-8.15 644.29-1.45Q642.79-0.65 639.96-0.08 637.14 0.5 634.09 0.5ZM629.84-14.05L629.84-14.05 636.74-15.05 636.29-17.2Q635.94-17.4 635.26-17.5 634.59-17.6 634.09-17.6L634.09-17.6Q632.69-17.6 631.76-17 630.84-16.4 630.36-15.58 629.89-14.75 629.84-14.05Z" opacity="1" transform="matrix(1,0,0,1,0,0)" fill="#111111" class="slogan-text-1" data-fill-palette-color="secondary" id="text-1"></path></svg></g></svg></g></svg></g></svg></g></svg></g></svg></g></svg></g><g><path d="M0 123.6c0-68.262 55.338-123.6 123.6-123.6 48.77 0 90.942 28.246 111.05 69.271l-3.182 0c-19.884-39.401-60.721-66.422-107.868-66.423-66.689 0-120.752 54.062-120.752 120.752 0 66.689 54.062 120.752 120.752 120.752 47.148 0 87.985-27.021 107.868-66.423h3.182c-20.108 41.025-62.281 69.271-111.05 69.271-68.262 0-123.6-55.338-123.6-123.6z" fill="#ff3700" stroke="transparent" data-fill-palette-color="tertiary"></path></g></svg></g><defs></defs></svg><rect width="395.52" height="247.2" fill="none" stroke="none" visibility="hidden"></rect></g></svg></g></svg>